<svg width="4" height="11" viewBox="0 0 4 11" fill="none" xmlns="http://www.w3.org/2000/svg">
<path d="M0.59463 10.1551C0.340048 9.78733 0.213257 9.26778 0.213257 8.59641V2.98389C0.213257 2.61321 0.242437 2.28689 0.299793 2.00296C0.358155 1.71903 0.511113 1.46369 0.760663 1.23694C1.01021 1.01019 1.39158 0.89682 1.90578 0.89682H2.04162C2.68662 0.89682 3.12736 1.06343 3.36383 1.39665C3.6003 1.72987 3.72406 2.15577 3.73412 2.67433V4.49621H2.28312V2.73348C2.28312 2.62997 2.25394 2.55209 2.19658 2.49983C2.13822 2.44758 2.0718 2.42195 1.99633 2.42195H1.95105C1.87055 2.42195 1.81017 2.44265 1.76992 2.48505C1.72967 2.52744 1.70251 2.59448 1.69044 2.68912C1.67736 2.78278 1.67131 2.9208 1.67131 3.10417V8.40614C1.67131 8.69204 1.68842 8.89217 1.72364 9.00554C1.75886 9.11892 1.83232 9.17906 1.94301 9.183H1.98828C2.09394 9.17807 2.16941 9.14751 2.21469 9.09033C2.25997 9.03315 2.28312 8.94836 2.28312 8.83499V6.48765H1.92791V5.25039H3.74218V10.6115H2.76712V9.89282H2.6987C2.69367 9.98648 2.6836 10.0683 2.66851 10.1373C2.63832 10.3246 2.5397 10.4666 2.37367 10.5632C2.20764 10.6598 2.00841 10.7071 1.77697 10.7071H1.67836C1.21146 10.7071 0.849211 10.5228 0.59463 10.1551Z" fill="#CC6237"/>
</svg>
