<svg width="5" height="10" viewBox="0 0 5 10" fill="none" xmlns="http://www.w3.org/2000/svg">
<path d="M1.1347 -0.000640869H3.13714L4.21785 9.61843H2.73665L2.53238 7.63388H1.73845L1.51909 9.61843H0.0529785L1.1347 -0.000640869ZM1.98901 6.24185H2.28384C2.31906 6.24185 2.34925 6.2448 2.3744 6.24973L2.39755 6.25762L2.41968 6.24283L2.40458 6.19847C2.40458 6.16396 2.40157 6.13143 2.39654 6.10185L2.18523 2.94709C2.1802 2.84357 2.17516 2.72231 2.17013 2.58429C2.1651 2.44627 2.16209 2.32994 2.16209 2.23628H2.10171C2.10171 2.32994 2.09869 2.44627 2.09366 2.58429C2.08863 2.72231 2.08359 2.84357 2.07856 2.94709L1.88235 6.10185L1.8743 6.14622L1.86725 6.19847L1.85215 6.24283L1.8743 6.25762L1.90448 6.24973C1.93064 6.24382 1.95883 6.24185 1.98901 6.24185Z" fill="#CC6237"/>
</svg>
