<svg width="5" height="15" viewBox="0 0 5 15" fill="none" xmlns="http://www.w3.org/2000/svg">
<path d="M0.793945 0.557068H0.801991V0.563969H0.793945V0.557068ZM0.793945 4.99937H2.53274C3.05196 4.99444 3.43636 5.10584 3.68591 5.33259C3.93546 5.55934 4.0884 5.81665 4.14676 6.10255C4.20513 6.38845 4.2333 6.71674 4.2333 7.08743V12.5304C4.2333 12.9011 4.20412 13.2274 4.14676 13.5113C4.0884 13.7952 3.93546 14.0506 3.68591 14.2773C3.43636 14.5051 3.05499 14.6184 2.54079 14.6184H0.794953V4.99937H0.793945ZM2.68367 13.0302C2.72392 12.9878 2.75009 12.9218 2.76317 12.8301C2.77525 12.7384 2.7823 12.6014 2.7823 12.419V7.22052C2.7823 7.03813 2.77424 6.89715 2.75914 6.79857C2.74405 6.69998 2.71588 6.62999 2.67563 6.58759C2.63538 6.5452 2.57198 6.5245 2.48645 6.5245H2.24495V13.0923H2.4945C2.58003 13.0933 2.64342 13.0716 2.68367 13.0302Z" fill="#CC6237"/>
</svg>
